<svg width="25" height="25" viewBox="0 0 25 25" fill="none" xmlns="http://www.w3.org/2000/svg">
<path d="M20.8993 2.53432H3.95926C3.76884 2.53167 3.57976 2.56657 3.40282 2.637C3.22589 2.70744 3.06456 2.81204 2.92806 2.94483C2.79155 3.07762 2.68254 3.236 2.60725 3.41093C2.53196 3.58585 2.49187 3.7739 2.48926 3.96432V21.1043C2.49187 21.2947 2.53196 21.4828 2.60725 21.6577C2.68254 21.8326 2.79155 21.991 2.92806 22.1238C3.06456 22.2566 3.22589 22.3612 3.40282 22.4316C3.57976 22.5021 3.76884 22.537 3.95926 22.5343H20.8993C21.0897 22.537 21.2788 22.5021 21.4557 22.4316C21.6326 22.3612 21.794 22.2566 21.9305 22.1238C22.067 21.991 22.176 21.8326 22.2513 21.6577C22.3266 21.4828 22.3666 21.2947 22.3693 21.1043V3.96432C22.3666 3.7739 22.3266 3.58585 22.2513 3.41093C22.176 3.236 22.067 3.07762 21.9305 2.94483C21.794 2.81204 21.6326 2.70744 21.4557 2.637C21.2788 2.56657 21.0897 2.53167 20.8993 2.53432ZM8.51926 19.2743H5.51926V10.2743H8.51926V19.2743ZM7.01926 9.01432C6.60552 9.01432 6.20873 8.84996 5.91617 8.55741C5.62361 8.26485 5.45926 7.86806 5.45926 7.45432C5.45926 7.04058 5.62361 6.64379 5.91617 6.35123C6.20873 6.05868 6.60552 5.89432 7.01926 5.89432C7.23895 5.8694 7.46143 5.89117 7.67213 5.9582C7.88283 6.02523 8.077 6.13601 8.24191 6.28328C8.40683 6.43055 8.53878 6.611 8.62913 6.8128C8.71947 7.01461 8.76618 7.23322 8.76618 7.45432C8.76618 7.67542 8.71947 7.89403 8.62913 8.09584C8.53878 8.29764 8.40683 8.47809 8.24191 8.62536C8.077 8.77263 7.88283 8.88341 7.67213 8.95044C7.46143 9.01747 7.23895 9.03923 7.01926 9.01432ZM19.3393 19.2743H16.3393V14.4443C16.3393 13.2343 15.9093 12.4443 14.8193 12.4443C14.4819 12.4468 14.1534 12.5526 13.8781 12.7475C13.6027 12.9424 13.3937 13.217 13.2793 13.5343C13.201 13.7694 13.1671 14.0169 13.1793 14.2643V19.2643H10.1793C10.1793 19.2643 10.1793 11.0843 10.1793 10.2643H13.1793V11.5343C13.4518 11.0614 13.8482 10.6718 14.3257 10.4075C14.8032 10.1432 15.3438 10.0142 15.8893 10.0343C17.8893 10.0343 19.3393 11.3243 19.3393 14.0943V19.2743Z" fill="#0A66C2"/>
</svg>
